<svg width="103" height="86" viewBox="0 0 103 86" fill="none" xmlns="http://www.w3.org/2000/svg">
<g id="Group">
<path id="Vector" d="M99.1556 17.1317H3.44278V18.2641C3.44278 38.7016 3.44278 59.1299 3.44278 79.5674C3.44278 81.5034 3.98157 82.0514 5.90843 82.0514C17.9444 82.0514 29.9713 82.0514 42.0074 82.0514C42.327 82.0514 42.6557 82.0331 42.9662 82.0696C43.8338 82.1701 44.4456 82.8641 44.4547 83.7316C44.4639 84.5992 43.8794 85.3206 43.021 85.4393C42.7105 85.485 42.3818 85.4576 42.0622 85.4576C29.9257 85.4576 17.7801 85.4576 5.6436 85.4576C2.0821 85.4576 0.0365281 83.4029 0.0365281 79.8231C0.0365281 54.984 0.0639242 30.1357 0 5.28747C0 2.5022 2.46565 -0.00910721 5.32398 2.48287e-05C35.9802 0.0639491 66.6273 0.0639491 97.2836 2.48287e-05C100.251 2.48287e-05 102.617 2.59352 102.608 5.28747C102.544 30.1357 102.571 54.984 102.571 79.8323C102.571 83.4212 100.525 85.4759 96.9731 85.4759C93.8773 85.4759 90.7816 85.4759 87.6858 85.4759C86.2247 85.4759 85.485 84.8823 85.5032 83.7499C85.5215 82.6175 86.2429 82.0696 87.7315 82.0696C90.7907 82.0696 93.8591 82.0696 96.9183 82.0696C98.5529 82.0696 99.1648 81.4486 99.1648 79.7957C99.1648 59.2213 99.1648 38.6377 99.1648 18.0632V17.1409L99.1556 17.1317ZM3.45191 13.6342H99.1556C99.1556 11.1137 99.1556 8.65719 99.1556 6.20981C99.1556 3.97246 98.6351 3.45193 96.3978 3.45193C66.326 3.45193 36.2542 3.45193 6.18239 3.45193C5.89929 3.45193 5.60707 3.43367 5.33311 3.45193C4.22813 3.54325 3.49757 4.17336 3.47931 5.26921C3.43365 8.03621 3.46104 10.8032 3.46104 13.6342H3.45191Z" fill="white"/>
<path id="Vector_2" d="M27.6153 48.6921C26.8208 49.7879 26.0902 50.7924 25.2775 51.9157C26.419 53.1668 27.4874 54.4909 28.7203 55.6507C29.8618 56.7283 29.9622 57.7693 29.3321 59.1756C28.7385 60.4907 28.3458 61.9152 28.0171 63.3216C27.734 64.527 27.0948 65.1663 25.8893 65.3672C24.346 65.6229 22.8301 65.979 21.2868 66.2347C20.6932 66.3352 20.5197 66.5817 20.5471 67.1479C20.5836 67.9972 20.5014 68.8647 20.5927 69.7049C20.6293 69.9971 20.9854 70.4263 21.2776 70.4994C22.9305 70.9012 24.6108 71.2208 26.282 71.5404C27.2043 71.7139 27.6975 72.2436 27.9166 73.1294C28.1632 74.1613 28.4737 75.1841 28.7385 76.216C28.9851 77.184 28.5376 78.0881 27.6792 78.3712C26.7843 78.6725 25.8985 78.2616 25.4966 77.3393C25.3688 77.047 25.2318 76.7365 25.2044 76.426C25.0766 74.9375 24.1542 74.4901 22.8118 74.3348C21.442 74.1796 20.0905 73.8234 18.7389 73.5221C17.5426 73.2572 17.1591 72.755 17.15 71.5039C17.15 69.4035 17.1591 67.3031 17.15 65.2028C17.1408 64.1069 17.6248 63.4677 18.7024 63.2485C20.4466 62.9015 22.1909 62.5819 23.9168 62.1618C24.2912 62.0705 24.693 61.6504 24.8757 61.2851C25.1862 60.655 25.2318 59.8879 25.5606 59.2761C26.1542 58.2076 25.8437 57.4862 25.0218 56.7009C23.9442 55.6781 22.9671 54.5274 21.9625 53.4225C21.1681 52.5367 21.1133 51.8152 21.8073 50.8381C23.031 49.1304 24.2638 47.4318 25.5058 45.7424C26.2181 44.7744 26.8938 44.5826 28.008 45.0758C29.5969 45.7789 31.1859 46.5004 32.7475 47.2583C33.2863 47.5232 33.7155 47.6053 34.163 47.1122C34.4278 46.8291 34.7383 46.5369 35.0853 46.3999C37.0395 45.6146 37.1674 44.1534 36.7747 42.3636C36.519 41.1855 36.4642 39.971 36.3455 38.7655C36.2542 37.8158 36.7108 37.1948 37.5966 36.8935C39.6878 36.1994 41.7791 35.5328 43.8703 34.8479C44.9296 34.5009 45.6602 34.921 46.1716 35.8342C47.0209 37.3501 47.8427 38.8934 48.7559 40.3728C48.9568 40.7015 49.4774 40.9846 49.8792 41.0212C50.8289 41.1125 51.806 41.1216 52.7558 41.0212C53.1576 40.9846 53.669 40.6833 53.8699 40.3545C54.7648 38.9025 55.5593 37.3957 56.4086 35.9072C57.0661 34.7474 57.7053 34.5009 58.9747 34.9027C60.865 35.5054 62.7554 36.1264 64.6366 36.7565C66.0977 37.2405 66.3808 37.6423 66.2438 39.1947C66.1068 40.7563 65.9242 42.3088 65.6776 43.8521C65.5589 44.6374 65.5954 45.2402 66.4173 45.5963C66.7004 45.7242 66.9926 45.9159 67.1935 46.1442C68.4537 47.5962 69.7962 47.5506 71.3577 46.5826C72.3805 45.9524 73.5312 45.5415 74.6361 45.0484C75.6041 44.61 76.426 44.7835 77.0744 45.6694C78.3255 47.3953 79.5948 49.1121 80.8368 50.8564C81.5034 51.7878 81.4304 52.5732 80.6359 53.4499C79.4578 54.7375 78.2889 56.0251 77.0744 57.2853C76.6817 57.6962 76.5539 58.0524 76.8096 58.6003C77.0744 59.1756 77.3483 59.7875 77.4214 60.4085C77.5858 61.7874 78.3894 62.2531 79.6588 62.4084C81.0651 62.5819 82.4532 62.9289 83.8321 63.2303C85.1014 63.5134 85.4759 63.9882 85.4759 65.3032C85.4759 67.3671 85.4759 69.4309 85.4759 71.4947C85.4759 72.7367 85.0832 73.239 83.8777 73.5038C82.1792 73.8782 80.4715 74.2252 78.7638 74.5357C78.1702 74.6453 77.7958 74.8371 77.7045 75.4946C77.6406 75.9421 77.5401 76.4352 77.3027 76.8096C76.3256 78.3894 76.8826 79.5401 78.1611 80.6268C78.8369 81.193 79.3939 81.9053 79.9692 82.5902C80.6267 83.3755 80.572 84.3435 79.9053 84.9919C79.2204 85.6403 78.2159 85.6859 77.5127 84.9554C76.0516 83.4486 74.5905 81.9327 73.2755 80.298C72.9193 79.8597 72.901 78.9465 73.0654 78.3346C73.5403 76.5539 74.2161 74.8371 74.7366 73.0655C75.0014 72.1705 75.4854 71.6774 76.3986 71.5039C78.0059 71.2025 79.5948 70.819 81.2021 70.545C81.8504 70.4354 82.1427 70.2345 82.0879 69.5405C82.0148 68.5177 82.3984 67.1844 81.887 66.5452C81.3847 65.9151 80.0058 65.9881 79.0012 65.769C78.1337 65.5772 77.2662 65.3672 76.3986 65.221C75.4854 65.0658 74.9923 64.5453 74.7366 63.6595C74.2161 61.897 73.6316 60.1436 73.0198 58.4086C72.7184 57.541 72.8097 56.8378 73.4398 56.1621C74.7366 54.7923 75.9968 53.3951 77.3575 51.9157C76.5813 50.8472 75.8233 49.797 75.0197 48.6829C73.3029 49.4683 71.6226 50.2171 69.9697 51.0116C68.9469 51.5047 68.125 51.3495 67.2392 50.6189C65.9516 49.5596 64.6 48.5733 63.2028 47.6693C62.2622 47.0666 61.8969 46.3451 62.0522 45.2676C62.2622 43.7882 62.3992 42.2996 62.6366 40.8294C62.7645 40.0075 62.5179 39.6422 61.7052 39.3865C58.9199 38.5281 58.929 38.4916 57.5227 41.0029C57.057 41.843 56.573 42.6649 56.1164 43.5142C55.6872 44.3178 55.057 44.674 54.1256 44.6557C52.2444 44.61 50.3632 44.6192 48.482 44.6557C47.5962 44.674 46.9935 44.327 46.5734 43.569C45.8063 42.1718 44.9753 40.7929 44.2447 39.3774C43.8703 38.656 43.4868 38.5646 42.7379 38.8295C39.8157 39.8249 39.8065 39.7975 40.2814 42.8841C40.4093 43.7242 40.5006 44.5735 40.6193 45.4228C40.7471 46.3634 40.4093 47.03 39.5965 47.578C38.0989 48.5916 36.6469 49.6783 35.2131 50.7833C34.446 51.3769 33.7063 51.4773 32.8388 51.0755C31.1402 50.281 29.4234 49.5048 27.6335 48.6829L27.6153 48.6921Z" fill="white"/>
<path id="Vector_3" d="M34.2177 66.9196C34.2177 59.5226 41.1307 51.9796 49.7879 51.3312C58.9564 50.6372 66.8282 56.8744 68.2072 65.9242C69.7505 75.9968 61.7782 85.4576 51.7421 85.4668C50.354 85.4668 49.6235 84.9006 49.6052 83.8047C49.587 82.6998 50.281 82.1062 51.6691 82.0514C58.8925 81.75 64.5726 76.1703 64.9653 68.9926C65.3306 62.2805 60.1527 55.8698 53.6142 54.9292C46.3451 53.8882 39.6696 58.2716 38.0532 65.1388C37.1765 68.8556 37.7518 72.3349 39.7244 75.5859C39.8157 75.7411 39.9161 75.8873 39.9983 76.0425C40.5097 77.0014 40.2997 77.9694 39.4778 78.4716C38.6468 78.983 37.6696 78.7638 37.0669 77.8506C35.1583 74.9558 34.1812 71.7687 34.2177 66.9105V66.9196Z" fill="white"/>
<path id="Vector_4" d="M18.9033 27.3779C22.1817 27.3779 25.451 27.3779 28.7294 27.3779C30.0809 27.3779 30.8115 28.0172 30.7932 29.1222C30.7658 30.1815 30.0535 30.7842 28.7568 30.7842C22.1361 30.7842 15.5153 30.7842 8.89461 30.7842C7.61612 30.7842 6.89469 30.1541 6.88556 29.0947C6.88556 28.0263 7.60699 27.3871 8.86721 27.3779C12.2095 27.3779 15.561 27.3779 18.9033 27.3779Z" fill="white"/>
<path id="Vector_5" d="M13.698 37.6239C12.0634 37.6239 10.4196 37.6331 8.78501 37.6239C7.59785 37.6148 6.88555 36.9664 6.87642 35.9436C6.86728 34.9026 7.57045 34.2268 8.74848 34.2268C12.0634 34.2177 15.3692 34.2177 18.6841 34.2268C19.853 34.2268 20.5562 34.9209 20.5379 35.9619C20.5197 36.9482 19.8256 37.6148 18.7207 37.6239C17.0495 37.6422 15.3783 37.6239 13.698 37.6239Z" fill="white"/>
<path id="Vector_6" d="M8.59324 10.2735C7.64351 10.2826 6.90381 9.57948 6.87642 8.63888C6.83989 7.64349 7.57045 6.8764 8.55671 6.86727C9.54297 6.85814 10.2918 7.6161 10.2827 8.60236C10.2644 9.54296 9.54297 10.2644 8.60237 10.2735H8.59324Z" fill="white"/>
<path id="Vector_7" d="M17.1134 8.59323C17.1043 9.57949 16.3189 10.3101 15.3327 10.2735C14.3921 10.237 13.698 9.4973 13.7072 8.54757C13.7163 7.56131 14.4925 6.83075 15.4879 6.86728C16.4285 6.90381 17.1226 7.6435 17.1134 8.59323Z" fill="white"/>
<path id="Vector_8" d="M22.2456 6.86719C23.2319 6.86719 23.9807 7.62514 23.9533 8.62054C23.9259 9.56114 23.2045 10.2734 22.2548 10.2734C21.2685 10.2734 20.5197 9.51548 20.5471 8.52009C20.5745 7.57949 21.2959 6.86719 22.2456 6.86719Z" fill="white"/>
</g>
</svg>
