<svg width="100" height="103" viewBox="0 0 100 103" fill="none" xmlns="http://www.w3.org/2000/svg">
<g id="Group">
<path id="Vector" d="M42.3897 94.9824C41.0382 95.4846 39.7323 95.9321 38.4538 96.4618C38.2164 96.5622 38.0337 96.9366 37.9516 97.2197C37.8694 97.5119 37.9516 97.859 37.9516 98.1786C37.9516 100.69 36.4265 102.361 33.9152 102.48C32.1344 102.562 30.3537 102.553 28.573 102.525C26.7831 102.498 25.2398 101.147 24.9475 99.3566C24.8197 98.553 24.8014 97.7311 24.7284 96.9823C22.5275 96.1239 20.3541 95.2655 17.9981 94.3431C17.6784 94.6993 17.2858 95.2107 16.8292 95.649C15.2493 97.1467 13.0302 97.1923 11.4321 95.7312C10.1171 94.5349 8.82949 93.3021 7.5784 92.0327C5.99856 90.4346 5.97117 88.2429 7.45056 86.5535C7.85237 86.0969 8.27244 85.6677 8.61032 85.3116C7.74278 83.1838 6.93003 81.1199 6.05335 79.0744C5.96203 78.8643 5.58762 78.6817 5.33193 78.6634C4.70182 78.5995 4.0443 78.6817 3.41419 78.6086C1.77043 78.426 0.309302 77.0471 0.190585 75.4033C0.0444727 73.3851 -0.0377179 71.3487 0.0170743 69.3214C0.0627345 67.2484 1.7613 65.6777 3.83427 65.6046C4.43699 65.5772 5.0397 65.6046 5.53283 65.6046C6.42777 63.3307 7.27705 61.1573 8.21765 58.7739C7.91629 58.509 7.43229 58.1437 7.01222 57.7145C5.35932 56.0251 5.33192 53.806 6.93916 52.0801C8.05327 50.8838 9.19479 49.7057 10.3363 48.5368C12.1444 46.6922 14.4092 46.6739 16.2812 48.4821C16.6374 48.8291 16.8839 49.2857 17.0575 49.514C19.5048 48.4547 21.6509 47.5232 23.8973 46.5461C23.8973 46.0712 23.8973 45.4776 23.8973 44.8749C23.9156 42.6193 25.4681 40.939 27.7328 40.8477C29.5501 40.7746 31.3673 40.7746 33.1755 40.802C35.2667 40.8294 36.8283 42.4275 36.9288 44.537C37.0201 46.4091 37.0292 46.3726 38.8008 47.0027C40.1067 47.4684 41.4035 47.9707 42.6272 48.5916C43.3577 48.9569 43.8509 49.0026 44.3257 48.2994C44.4627 48.0985 44.6636 47.9341 44.8462 47.7606C46.5174 46.1351 48.7639 46.0895 50.4898 47.6784C51.6953 48.7925 52.8642 49.934 54.0239 51.0847C55.8595 52.8928 55.9325 55.2124 54.0696 57.0114C53.1838 57.8607 53.129 58.4634 53.7409 59.5136C54.4897 60.7829 54.9189 62.244 55.5307 63.5956C55.7134 63.9883 56.033 64.5453 56.3526 64.591C57.0649 64.6823 57.8229 64.801 58.3434 63.8513C59.8867 61.0112 61.5396 58.2259 63.1834 55.4407C64.5441 53.1303 66.5714 51.7057 69.2196 51.2856C73.046 50.6829 76.3609 52.2718 78.3334 55.6324C80.5982 59.4953 82.8172 63.3855 85.0546 67.2667C89.3192 74.6545 93.6113 82.024 97.8394 89.4392C100.67 94.4071 98.2139 100.571 92.7986 102.169C91.931 102.425 90.9813 102.525 90.0681 102.525C77.2832 102.544 64.5075 102.462 51.7227 102.58C47.2754 102.626 43.3577 99.9319 42.3989 94.9824H42.3897ZM70.699 100.197C77.0367 100.197 83.3743 100.197 89.7119 100.197C95.3738 100.188 98.3508 95.092 95.529 90.1881C89.1823 79.1566 82.8172 68.1433 76.4431 57.1301C73.6395 52.281 67.7494 52.2992 64.9276 57.1392C63.3752 59.8149 61.841 62.4997 60.2885 65.1754C55.4759 73.5221 50.6725 81.8688 45.8325 90.1972C44.8919 91.8136 44.4901 93.4939 44.9284 95.302C45.6681 98.3247 48.1612 100.188 51.467 100.197C57.8776 100.215 64.2792 100.197 70.6899 100.197H70.699ZM56.4439 67.0566C55.9234 67.0566 55.6038 67.0384 55.2933 67.0566C54.3983 67.1114 53.9143 66.6731 53.6952 65.8329C53.0651 63.3307 52.0423 61.0021 50.6359 58.8378C50.2067 58.1803 50.2524 57.5684 50.8094 57.0022C51.3848 56.4178 51.9601 55.8425 52.508 55.2306C53.1747 54.4818 53.2021 53.6508 52.508 52.9476C51.3117 51.7331 50.0698 50.5459 48.8187 49.3861C48.0607 48.683 47.3119 48.7195 46.5448 49.4318C45.9786 49.9706 45.4307 50.5276 44.9102 51.1121C44.3166 51.7787 43.6865 51.8792 42.9194 51.4226C40.7094 50.0984 38.3351 49.167 35.8147 48.6373C35.011 48.4729 34.591 47.9707 34.6001 47.1305C34.6001 46.3452 34.6001 45.5598 34.5727 44.7836C34.527 43.7243 33.9517 43.1398 32.8924 43.1398C31.2578 43.1398 29.614 43.1398 27.9794 43.222C26.7648 43.2768 26.2534 43.843 26.2351 45.0484C26.226 45.8338 26.2351 46.6191 26.2717 47.3953C26.2991 48.1533 25.9612 48.619 25.2398 48.8017C22.6645 49.4409 20.2719 50.5002 18.0437 51.934C17.368 52.3723 16.7744 52.2627 16.2173 51.7148C15.6603 51.1669 15.1032 50.6189 14.5188 50.0893C13.6512 49.3039 12.9206 49.3039 12.0896 50.135C10.9299 51.2947 9.7975 52.4728 8.68339 53.6782C7.92544 54.5001 7.96194 55.2854 8.77469 56.1164C9.32261 56.6735 9.89794 57.2123 10.4641 57.7511C11.0394 58.2899 11.0395 58.8378 10.729 59.5683C9.72444 61.9427 8.76556 64.3444 7.88888 66.7735C7.59666 67.568 7.19487 67.9516 6.36385 67.9424C5.61502 67.9242 4.86619 67.9242 4.11736 67.9698C2.9302 68.0429 2.37314 68.6182 2.37314 69.8145C2.37314 71.4491 2.42794 73.0929 2.49186 74.7275C2.52839 75.7412 3.08544 76.2708 4.11736 76.2982C4.93925 76.3165 5.752 76.3165 6.57388 76.28C7.36837 76.2434 7.86151 76.5813 8.05328 77.3575C8.70166 79.9328 9.74271 82.3254 11.1947 84.5445C11.6056 85.1746 11.5326 85.7408 11.0121 86.2795C10.4641 86.8366 9.91621 87.3937 9.38655 87.9781C8.55554 88.8913 8.53727 89.6401 9.38655 90.4894C10.5463 91.6492 11.7244 92.7816 12.9298 93.8957C13.7425 94.6536 14.4639 94.6354 15.2767 93.8591C15.8429 93.3203 16.3726 92.745 16.9022 92.1697C17.4684 91.5579 18.0803 91.4483 18.8108 91.8775C21.0664 93.2016 23.459 94.1696 26.016 94.6993C26.7374 94.8454 27.1301 95.2837 27.1575 96.0326C27.1849 96.8544 27.2032 97.6672 27.2488 98.4891C27.3036 99.6306 27.8333 100.215 28.9656 100.215C30.6368 100.215 32.308 100.142 33.9791 100.087C34.9654 100.051 35.4768 99.4845 35.5316 98.5347C35.5681 97.8224 35.5316 97.1101 35.4859 96.3978C35.3946 95.302 35.8238 94.7358 36.9196 94.3979C38.6091 93.8774 40.2437 93.1651 41.8692 92.4711C42.2071 92.325 42.481 91.914 42.6545 91.567C43.102 90.6812 43.4034 89.7223 43.8965 88.8639C47.3576 82.8185 50.8551 76.7914 54.3344 70.7551C55.0102 69.5953 55.6768 68.4264 56.4439 67.084V67.0566Z" fill="white"/>
<path id="Vector_2" d="M42.4354 34.1903C41.7505 32.6105 41.0838 31.0946 40.3989 29.5239C40.4081 29.5239 40.335 29.4873 40.2711 29.4873C37.0018 29.7978 35.7873 27.8618 35.906 25.1496C35.9425 24.2273 35.8695 23.2958 35.8786 22.3735C35.906 20.4284 37.1936 19.0403 39.1113 19.0038C39.988 18.9855 40.4172 18.7755 40.6455 17.844C40.9012 16.7847 41.4857 15.8167 41.8418 14.7756C41.9423 14.4925 41.8692 14.0085 41.6866 13.7985C39.7871 11.6433 39.7962 10.2279 41.7688 8.16404C42.408 7.4974 43.0473 6.82163 43.6956 6.16412C45.3851 4.43817 47.1475 4.40164 48.9283 6.06367C49.1109 6.22805 49.2936 6.38329 49.4305 6.51114C50.8551 5.90843 52.2432 5.3605 53.5856 4.73039C53.8413 4.61168 54.0787 4.18247 54.097 3.89025C54.2157 1.1963 55.3755 0.0456602 58.0968 0.0182641C59.0922 0.00913203 60.0876 0 61.083 0C63.3386 0 64.6354 1.28762 64.681 3.56149C64.681 3.80806 64.681 4.05462 64.681 4.27379C66.2791 4.9039 67.8224 5.51575 69.4479 6.15499C69.5301 6.08193 69.7036 5.95409 69.8498 5.80797C71.731 3.92678 73.4021 3.89025 75.3107 5.70752C76.0322 6.39242 76.7536 7.08646 77.4659 7.78049C79.1827 9.46079 79.2284 11.2415 77.5846 13.0131C77.4202 13.1958 77.2558 13.3784 77.1371 13.5063C77.7307 14.94 78.2695 16.3189 78.8905 17.6705C79.0092 17.9262 79.4567 18.1545 79.758 18.1727C82.3698 18.2915 83.493 19.369 83.6117 21.9899C83.6574 23.0584 83.6848 24.1268 83.6848 25.1953C83.6848 27.3413 82.3515 28.7476 80.1872 28.7842C79.4384 28.7933 79.1736 29.049 78.9635 29.743C78.6348 30.8206 78.096 31.8434 77.7398 32.9119C77.6394 33.2223 77.7125 33.7429 77.9134 33.9803C79.7489 36.0076 79.7489 37.5509 77.822 39.5326C77.1006 40.2723 76.3974 41.0211 75.6669 41.7517C74.1875 43.2128 72.3337 43.2858 70.836 41.8339C70.2333 41.2494 69.8132 41.222 69.1101 41.6147C68.1877 42.1352 67.1832 42.537 66.1787 42.8749C65.6034 43.0667 65.4207 43.3132 65.4116 43.9251C65.3751 46.4912 64.2427 47.6053 61.6857 47.6692C60.6538 47.6966 59.6219 47.7331 58.59 47.7514C56.2887 47.7971 54.9189 46.5003 54.8915 44.1808C54.8915 43.5324 54.6815 43.2767 54.0513 43.0849C52.9372 42.7471 51.8505 42.2905 50.7912 41.7882C50.2707 41.5416 49.9876 41.6238 49.6041 42.0074C47.7868 43.8155 46.0791 43.7972 44.2344 42.0074C43.5221 41.3133 42.8007 40.6193 42.0884 39.9253C40.3624 38.245 40.3259 36.4916 41.9879 34.7109C42.1523 34.5282 42.3167 34.3456 42.4445 34.1995L42.4354 34.1903ZM60.1515 45.304C63.0921 45.2584 63.1103 45.6693 63.0007 42.5279C62.9733 41.7517 63.3112 41.3042 64.0509 41.0028C65.8499 40.2723 67.6398 39.496 69.4023 38.6742C70.0598 38.3728 70.5894 38.3545 71.1556 38.8385C73.3382 40.7015 73.3565 40.7015 75.2924 38.665C77.265 36.6103 77.5755 36.8752 75.2742 34.7748C74.6989 34.2543 74.6167 33.6972 74.9272 32.9575C75.6943 31.1311 76.3426 29.259 77.1371 27.4418C77.3289 27.0126 77.8677 26.6107 78.3243 26.4738C78.9179 26.2911 79.5936 26.3916 80.2329 26.3642C80.9269 26.3368 81.2739 25.9624 81.2648 25.2683C81.2648 24.5926 81.2283 23.9168 81.21 23.241C81.1461 20.6293 81.1461 20.6201 78.5526 20.6201C77.685 20.6201 77.2102 20.2731 76.8814 19.4512C76.1965 17.707 75.4568 15.9811 74.6441 14.3008C74.2788 13.5519 74.2331 12.9675 74.845 12.3922C77.2193 10.164 76.644 10.3009 74.6989 8.4106C72.6533 6.42895 72.7903 6.00888 70.7082 8.33755C70.1146 9.00419 69.5119 9.00419 68.7174 8.60238C67.4572 7.954 66.1695 7.28736 64.818 6.91295C61.8866 6.11846 62.3889 6.1276 62.3432 3.72587C62.325 2.75787 61.9414 2.25561 60.9278 2.31954C60.3251 2.35607 59.7223 2.34693 59.1105 2.35606C56.0786 2.39259 56.5352 2.51131 56.5444 4.92217C56.5444 4.99522 56.5444 5.06828 56.5444 5.1322C56.5992 5.96322 56.1974 6.40156 55.4212 6.71205C53.6495 7.41521 51.8962 8.19143 50.1702 9.00419C49.5127 9.31468 49.0013 9.36034 48.4169 8.87634C46.9253 7.62829 45.4977 7.71353 44.1339 9.13203C42.2527 11.0863 42.061 10.9128 44.2161 12.8944C44.8645 13.488 44.9102 14.0725 44.554 14.8852C43.7961 16.5929 43.102 18.3463 42.4993 20.1179C42.2254 20.9215 41.8053 21.2868 40.9925 21.3324C38.2346 21.4968 38.2346 21.5059 38.3351 24.3734C38.4355 27.2409 37.9972 27.2043 41.1295 27.1221C41.9971 27.0947 42.3715 27.5148 42.6728 28.2728C43.3668 30.017 44.0974 31.743 44.9193 33.4232C45.2663 34.1355 45.3029 34.6469 44.7732 35.2588C42.9011 37.4048 42.9011 37.4322 44.9558 39.3773C46.8553 41.1763 46.7001 41.7973 48.8644 39.3773C49.3484 38.8385 49.8871 38.6924 50.5812 38.9847C52.4441 39.7517 54.3436 40.4275 56.1791 41.2585C56.6266 41.4594 57.1197 42.0713 57.1654 42.5279C57.4393 45.3497 57.4028 45.3497 60.1515 45.3223V45.304Z" fill="white"/>
<path id="Vector_3" d="M71.9136 76.6907C71.9136 78.8641 71.9136 81.0376 71.9136 83.2019C71.9136 84.0694 71.7309 84.8365 70.6899 84.8456C69.6306 84.8456 69.4844 84.042 69.4844 83.1927C69.4844 78.8824 69.4844 74.5812 69.4844 70.2709C69.4844 69.4125 69.6762 68.6089 70.7081 68.618C71.7218 68.618 71.9318 69.4125 71.9227 70.28C71.9227 72.4169 71.9227 74.5538 71.9227 76.6907H71.9136Z" fill="white"/>
<path id="Vector_4" d="M69.521 89.704C69.6854 88.9095 70.1511 88.5625 70.9 88.6721C71.6031 88.7817 72.0323 89.3387 71.8132 89.9414C71.6579 90.3798 71.037 90.882 70.5804 90.9277C69.8589 91.0008 69.5119 90.398 69.521 89.6949V89.704Z" fill="white"/>
<path id="Vector_5" d="M46.9923 71.6772C47.0197 80.4896 39.8784 87.7679 31.1665 87.8044C22.0344 87.8409 14.7927 80.7453 14.7379 71.7046C14.6831 62.9196 21.9248 55.5774 30.6733 55.5592C39.8967 55.5318 46.9649 62.5086 46.9923 71.6772ZM44.6179 71.6863C44.6179 64.0611 38.4538 57.8696 30.8651 57.8878C23.3038 57.9061 17.2036 64.0246 17.167 71.6224C17.1305 79.1929 23.2581 85.3935 30.8012 85.4209C38.4081 85.4483 44.6088 79.2842 44.6179 71.6863Z" fill="white"/>
<path id="Vector_6" d="M59.7498 11.2962C66.6901 11.2688 72.352 16.8759 72.3702 23.7889C72.3885 30.7657 66.7449 36.455 59.7954 36.4824C52.9555 36.5007 47.2115 30.8388 47.1841 24.0446C47.1567 16.9398 52.6907 11.3236 59.7498 11.2962ZM59.8045 34.0533C65.439 34.0259 69.9959 29.4873 70.005 23.8802C70.0142 18.2092 65.366 13.634 59.6219 13.6523C54.1153 13.6797 49.5401 18.2914 49.5219 23.8345C49.5036 29.4781 54.1244 34.0715 59.7954 34.0441L59.8045 34.0533Z" fill="white"/>
</g>
</svg>
