<svg width="110" height="110" viewBox="0 0 110 110" fill="none" xmlns="http://www.w3.org/2000/svg">
<g id="Group">
<path id="Vector" d="M109.394 75.4306C108.946 76.3438 108.608 77.3392 108.024 78.152C106.682 80.024 104.791 80.9829 102.453 80.9829C97.1843 80.9829 91.9151 80.9829 86.655 80.992C86.171 80.992 85.6505 81.0742 85.2213 81.266C70.8475 87.7406 56.9394 86.8548 43.497 78.6268C43.3783 78.5538 43.2505 78.4898 42.9126 78.2981C42.666 78.6177 42.4103 79.0104 42.0998 79.3391C33.4883 88.3342 24.8768 97.3383 16.2379 106.315C12.439 110.26 6.66754 110.443 2.86861 106.79C-0.95771 103.11 -0.966848 97.1283 2.90513 93.3477C6.70406 89.6492 10.5487 85.9964 14.375 82.3253C19.6624 77.2479 24.959 72.1796 30.2556 67.1022C30.5113 66.8556 30.8126 66.6547 31.0775 66.4538C23.6531 54.6826 22.0459 42.2813 26.1188 29.0399C25.5069 29.0399 24.9773 29.0399 24.4476 29.0399C19.5711 29.0399 14.6946 29.0399 9.81809 29.0399C5.94611 29.0307 2.9508 26.4007 2.42114 22.5744C1.93714 19.0677 4.348 15.7071 8.01908 14.6843C8.39349 14.5839 8.84096 14.1364 8.94141 13.762C10.2747 9.01331 13.2609 5.88102 18.0552 4.68472C22.8221 3.49756 26.8767 4.94043 30.2464 8.45626C30.4747 8.69369 30.8035 8.98592 31.0866 8.97679C33.5431 8.95853 35.68 9.77127 37.4242 11.2963C39.6707 9.65256 41.7711 7.94487 44.0358 6.502C49.7068 2.89485 55.9166 0.794479 62.6195 0.191765C62.8935 0.164369 63.1674 0.0639242 63.4414 0C65.5783 0 67.7152 0 69.8521 0C71.2128 0.210037 72.5826 0.401812 73.9432 0.630113C90.801 3.47018 104.581 16.529 108.289 33.2315C108.745 35.3044 109.01 37.4231 109.366 39.5143V46.135C109.193 47.2857 109.029 48.4363 108.837 49.5778C107.969 54.8196 106.207 59.7235 103.54 64.3261C103.385 64.5909 103.294 65.011 103.394 65.2667C103.878 66.4173 104.426 67.4035 105.75 68.0154C106.855 68.5268 107.677 69.7231 108.499 70.7185C108.928 71.239 109.083 71.9787 109.357 72.6179V75.3941L109.394 75.4306ZM71.368 80.8642C70.2539 79.8414 69.0119 78.8551 67.98 77.6862C67.5052 77.1474 67.1307 76.9009 66.4276 76.9009C61.2223 76.9191 56.2728 75.7411 51.6154 73.4307C37.1777 66.2712 29.6894 50.4088 33.4518 34.7565C34.1002 32.0534 35.3147 29.4873 36.3832 26.903C36.8672 25.7341 38.1 25.3871 39.1593 25.8711C40.2734 26.3733 40.7026 27.524 40.2278 28.7385C40.0999 29.0673 39.9264 29.3869 39.7712 29.7065C37.2416 35.0031 36.1731 40.5919 37.0133 46.3999C38.6297 57.5866 44.6933 65.5498 54.9669 70.2345C58.6927 71.933 62.6743 72.6271 66.7655 72.6453C67.5417 69.44 69.3772 67.367 72.5917 66.6091C72.8839 66.536 73.1853 66.052 73.2766 65.705C74.8199 59.5591 80.7375 55.468 86.9564 56.4451C88.7463 56.7282 90.4631 57.477 92.3169 58.0523C92.3991 57.9245 92.6 57.5957 92.7918 57.2579C96.0336 51.322 97.1843 45.0118 96.1889 38.3089C94.0794 24.1268 81.9794 13.3236 67.633 12.8944C62.4917 12.7392 57.6152 13.8533 53.0217 16.1728C51.6245 16.876 50.4009 16.529 49.8164 15.3509C49.232 14.182 49.716 13.0223 51.1131 12.3191C58.0809 8.83067 65.4048 7.74397 73.0757 9.20509C94.0794 13.2141 106.28 35.3136 98.4719 55.2488C97.7139 57.1848 96.7094 59.0203 95.8601 60.8285C97.1843 61.1572 98.5449 61.4951 99.9421 61.8421C108.179 48.2445 107.047 27.9714 92.8648 14.6934C78.7832 1.50678 57.3869 0.840139 42.2368 13.1045C27.5525 24.9944 23.8814 46.3725 33.7988 62.6458C38.7849 70.8281 45.9079 76.426 55.0399 79.3665C60.437 81.1107 65.9618 81.6404 71.3589 80.8733L71.368 80.8642ZM88.171 76.7182C92.8374 76.7182 97.4948 76.7273 102.161 76.7182C103.869 76.7182 105.056 75.6315 105.111 74.1156C105.157 72.7093 104.097 71.5952 102.508 71.3851C101.093 71.1933 100.517 70.6545 100.262 69.2573C99.7595 66.5086 97.8235 64.9653 95.1022 65.4128C93.6045 65.6593 92.7096 65.1845 91.8877 63.9882C89.9882 61.1938 86.5728 59.9792 83.3492 60.8376C79.8425 61.7691 77.523 64.6 77.3038 68.2163C77.2216 69.6409 76.6281 70.5267 75.5779 70.7093C75.0573 70.8007 74.5094 70.7459 73.9798 70.7915C72.1899 70.9376 71.0484 72.1522 71.094 73.8508C71.1397 75.5311 72.4273 76.7182 74.2903 76.7182C78.9202 76.7365 83.541 76.7182 88.171 76.7182ZM25.0686 78.0698C18.5483 84.3252 12.092 90.4893 5.68128 96.69C4.52151 97.8132 4.08317 99.2835 4.37539 100.9C4.74067 102.891 5.90044 104.26 7.8273 104.863C9.85461 105.502 11.6171 104.918 13.0691 103.402C19.0323 97.1923 24.9864 90.9825 30.9405 84.7635C31.0775 84.6174 31.1779 84.4439 31.324 84.243C29.3972 82.3162 27.5068 80.435 25.6256 78.5538C25.4795 78.4076 25.3151 78.2707 25.0777 78.0606L25.0686 78.0698ZM34.5568 14.5656C33.4883 13.6524 32.3651 13.1593 31.1323 13.4332C29.3789 13.8168 28.3196 13.2049 27.3059 11.7529C25.4521 9.07724 21.9272 8.03618 18.7583 8.96765C15.553 9.90825 13.2883 12.6205 12.996 15.8897C12.7769 18.3554 12.3477 18.7572 9.93681 18.8303C8.02822 18.885 6.7132 20.1087 6.72233 21.8164C6.73146 23.4785 8.01907 24.7661 9.85461 24.7752C15.6535 24.8117 21.4523 24.7935 27.242 24.7752C27.5251 24.7752 27.9634 24.5743 28.073 24.3369C29.7899 20.8393 31.9176 17.6248 34.5476 14.5656H34.5568ZM39.278 76.0607C37.2872 74.0699 35.3513 72.1339 33.3513 70.1432C31.8263 71.6043 30.0364 73.3211 28.2739 75.0014C30.3378 77.0652 32.3468 79.0743 34.4107 81.1473C36.0909 79.3939 37.8078 77.5949 39.2689 76.0699L39.278 76.0607Z" fill="white"/>
<path id="Vector_2" d="M41.8898 20.0449C41.9081 18.8212 42.8395 17.9354 44.0723 17.9628C45.2412 17.9902 46.1362 18.9034 46.1453 20.0723C46.1453 21.2686 45.1956 22.2274 43.9993 22.2274C42.7939 22.2274 41.8715 21.2686 41.8898 20.0449Z" fill="white"/>
<path id="Vector_3" d="M58.1175 42.7472C58.1175 43.9618 57.1769 44.8932 55.9623 44.875C54.7569 44.8659 53.8345 43.907 53.8619 42.6924C53.8893 41.5235 54.7934 40.6286 55.9623 40.6195C57.1769 40.6103 58.1175 41.5327 58.1175 42.7472Z" fill="white"/>
<path id="Vector_4" d="M68.8019 42.7927C68.7745 43.9982 67.8156 44.9114 66.5919 44.8748C65.3865 44.8383 64.4915 43.8612 64.5372 42.6375C64.5829 41.4777 65.5143 40.601 66.6924 40.6102C67.9069 40.6193 68.8201 41.569 68.8019 42.7927Z" fill="white"/>
<path id="Vector_5" d="M77.3495 40.6102C78.5641 40.6102 79.4864 41.5508 79.4773 42.7654C79.4681 43.9708 78.5093 44.8931 77.2947 44.8657C76.1258 44.8383 75.2309 43.9251 75.2217 42.7562C75.2126 41.5417 76.135 40.6011 77.3495 40.6011V40.6102Z" fill="white"/>
</g>
</svg>
